ffmpeg started on 2025-06-07 at 18:03:54
Report written to "D:\Convert\FFMetrics\reports\ssim_report-6.txt"
Log level: 32
Command line:
ffmpeg -hide_banner -nostdin -i "G:\\\xc0\xed\xe8\xec\xe5\\\xce\xed\xe3\xee\xe8\xed\xe3\xe8\\!_36_\xce\xf1\xe5\xed\xfc_2024\\DreamCast\\\xdf \xed\xe5 \xec\xee\xe3\xf3 \xef\xee\xe9\xec\xe0\xf2\xfc \xea\xee\xf2\xe0\\[DC] Neko Nanka Yondemo Konai - 07_Telegram_HEVC.mkv" -i "G:\\\xc0\xed\xe8\xec\xe5\\\xce\xed\xe3\xee\xe8\xed\xe3\xe8\\!_36_\xce\xf1\xe5\xed\xfc_2024\\DreamCast\\\xdf \xed\xe5 \xec\xee\xe3\xf3 \xef\xee\xe9\xec\xe0\xf2\xfc \xea\xee\xf2\xe0\\[DC] Neko Nanka Yondemo Konai - 07_Telegram.mp4" -lavfi "[0:v]settb=AVTB,setpts=PTS-STARTPTS,format=pix_fmts=yuv420p10,fps=24000/1001,scale=1280:720:flags=bicubic[main];[1:v]settb=AVTB,setpts=PTS-STARTPTS,format=pix_fmts=yuv420p,fps=24000/1001,scale=1280:720:flags=bicubic[ref];[main][ref]ssim=eof_action=endall:stats_file='D\\:/Convert/FFMetrics/logs/ssim_logfile-6.txt'" -f null -
Input #0, matroska,webm, from 'G:\Аниме\Онгоинги\!_36_Осень_2024\DreamCast\Я не могу поймать кота\[DC] Neko Nanka Yondemo Konai - 07_Telegram_HEVC.mkv':
  Metadata:
    COMPATIBLE_BRANDS: isomiso2avc1mp41
    MAJOR_BRAND     : isom
    MINOR_VERSION   : 512
    ENCODER         : Lavf61.7.100
  Duration: 00:01:36.64, start: -0.021000, bitrate: 1227 kb/s
  Stream #0:0: Video: hevc (Main 10), yuv420p10le(tv, bt709, progressive), 1920x1080 [SAR 1:1 DAR 16:9], 23.98 fps, 23.98 tbr, 1k tbn (default)
      Metadata:
        HANDLER_NAME    : VideoHandler
        VENDOR_ID       : [0][0][0][0]
        ENCODER         : Lavc61.19.100 libx265
        BPS             : 1029883
        DURATION        : 00:01:36.554708333
        NUMBER_OF_FRAMES: 2315
        NUMBER_OF_BYTES : 12429924
        _STATISTICS_WRITING_APP: mkvpropedit v66.0.0 ('Josie') 64-bit
        _STATISTICS_WRITING_DATE_UTC: 2025-06-06 09:17:54
        _STATISTICS_TAGS: BPS DURATION NUMBER_OF_FRAMES NUMBER_OF_BYTES
  Stream #0:1: Audio: aac (LC), 48000 Hz, stereo, fltp (default)
      Metadata:
        HANDLER_NAME    : SoundHandler
        VENDOR_ID       : [0][0][0][0]
        ENCODER         : Lavc61.19.100 aac
        BPS             : 194063
        DURATION        : 00:01:36.640000000
        NUMBER_OF_FRAMES: 4531
        NUMBER_OF_BYTES : 2344292
        _STATISTICS_WRITING_APP: mkvpropedit v66.0.0 ('Josie') 64-bit
        _STATISTICS_WRITING_DATE_UTC: 2025-06-06 09:17:54
        _STATISTICS_TAGS: BPS DURATION NUMBER_OF_FRAMES NUMBER_OF_BYTES
Input #1, mov,mp4,m4a,3gp,3g2,mj2, from 'G:\Аниме\Онгоинги\!_36_Осень_2024\DreamCast\Я не могу поймать кота\[DC] Neko Nanka Yondemo Konai - 07_Telegram.mp4':
  Metadata:
    major_brand     : isom
    minor_version   : 512
    compatible_brands: isomiso2avc1mp41
    encoder         : Lavf60.16.100
  Duration: 00:01:36.62, start: 0.000000, bitrate: 2411 kb/s
  Stream #1:0[0x1](und): Video: h264 (High) (avc1 / 0x31637661), yuv420p(tv, bt709, progressive), 1280x720 [SAR 1:1 DAR 16:9], 2265 kb/s, 23.98 fps, 23.98 tbr, 24k tbn (default)
      Metadata:
        handler_name    : VideoHandler
        vendor_id       : [0][0][0][0]
        encoder         : Lavc60.31.102 h264_qsv
  Stream #1:1[0x2](und): Audio: aac (HE-AACv2) (mp4a / 0x6134706D), 48000 Hz, stereo, fltp, 144 kb/s (default)
      Metadata:
        handler_name    : SoundHandler
        vendor_id       : [0][0][0][0]
Stream mapping:
  Stream #0:0 (hevc) -> settb:default
  Stream #1:0 (h264) -> settb:default
  ssim:default -> Stream #0:0 (wrapped_avframe)
  Stream #0:1 -> #0:1 (aac (native) -> pcm_s16le (native))
Output #0, null, to 'pipe:':
  Metadata:
    COMPATIBLE_BRANDS: isomiso2avc1mp41
    MAJOR_BRAND     : isom
    MINOR_VERSION   : 512
    encoder         : Lavf61.7.100
  Stream #0:0: Video: wrapped_avframe, yuv420p10le(tv, bt709, progressive), 1280x720 [SAR 1:1 DAR 16:9], q=2-31, 200 kb/s, 23.98 fps, 23.98 tbn
      Metadata:
        encoder         : Lavc61.19.100 wrapped_avframe
  Stream #0:1: Audio: pcm_s16le, 48000 Hz, stereo, s16, 1536 kb/s (default)
      Metadata:
        HANDLER_NAME    : SoundHandler
        VENDOR_ID       : [0][0][0][0]
        _STATISTICS_TAGS: BPS DURATION NUMBER_OF_FRAMES NUMBER_OF_BYTES
        BPS             : 194063
        DURATION        : 00:01:36.640000000
        NUMBER_OF_FRAMES: 4531
        NUMBER_OF_BYTES : 2344292
        _STATISTICS_WRITING_APP: mkvpropedit v66.0.0 ('Josie') 64-bit
        _STATISTICS_WRITING_DATE_UTC: 2025-06-06 09:17:54
        encoder         : Lavc61.19.100 pcm_s16le
frame=  210 fps=0.0 q=-0.0 size=N/A time=00:00:08.75 bitrate=N/A speed=16.6x    frame=  540 fps=520 q=-0.0 size=N/A time=00:00:22.52 bitrate=N/A speed=21.7x    frame=  770 fps=498 q=-0.0 size=N/A time=00:00:32.11 bitrate=N/A speed=20.8x    frame= 1006 fps=485 q=-0.0 size=N/A time=00:00:41.95 bitrate=N/A speed=20.2x    frame= 1293 fps=500 q=-0.0 size=N/A time=00:00:53.92 bitrate=N/A speed=20.9x    frame= 1644 fps=529 q=-0.0 size=N/A time=00:01:08.56 bitrate=N/A speed=22.1x    frame= 1975 fps=546 q=-0.0 size=N/A time=00:01:22.37 bitrate=N/A speed=22.8x    frame= 2223 fps=538 q=-0.0 size=N/A time=00:01:32.71 bitrate=N/A speed=22.4x    [Parsed_ssim_10 @ 000001a7fd965ec0] SSIM Y:0.995598 (23.563428) U:0.995504 (23.472166) V:0.996057 (24.041202) All:0.995659 (23.623880)
[out#0/null @ 000001a7f14b0ec0] video:995KiB audio:18124KiB subtitle:0KiB other streams:0KiB global headers:0KiB muxing overhead: unknown
frame= 2315 fps=541 q=-0.0 Lsize=N/A time=00:01:36.55 bitrate=N/A speed=22.6x    
